<svg version="1.1" width="34" height="39" xmlns="http://www.w3.org/2000/svg" xmlns:xlink="http://www.w3.org/1999/xlink">
  <!-- Exported by Scratch - http://scratch.mit.edu/ -->
  <path id="ID0.3051797547377646" fill="#000000" stroke="none" d="M 243.075 159.100 C 244.710 159.100 246.191 159.442 247.263 159.994 C 248.336 160.546 249 161.309 249 162.150 C 249 162.991 248.336 163.754 247.263 164.306 C 246.191 164.858 244.710 165.200 243.075 165.200 C 241.440 165.200 239.959 164.858 238.887 164.306 C 237.814 163.754 237.150 162.991 237.150 162.150 C 237.150 161.309 237.814 160.546 238.887 159.994 C 239.959 159.442 241.440 159.100 243.075 159.100 Z " transform="matrix(1.088607668876648, 0, 0, 2.190976619720459, -244.55, -348.25)"/>
  <path id="ID0.7967131421901286" fill="#000000" stroke="#000000" stroke-width="2" stroke-linecap="round" d="M 240 171.850 C 240.017 174.076 231.377 174.521 226.950 175.450 C 225.844 175.684 224.431 177.330 225.100 177.950 C 226.106 178.955 228.525 179.076 230.300 178.700 C 233.883 177.950 240.983 175.124 240.500 174.600 Z " transform="matrix(0.9404871463775635, 0, 0, 0.9996042251586914, -209.7, -159)"/>
  <path id="ID0.8002357394434512" fill="none" stroke="#000000" stroke-width="2" stroke-linecap="round" d="M 240.650 187.100 L 240.950 187.400 C 240.707 187.154 242.526 189.027 242.500 189 Z " transform="matrix(1, 0, 0, 1, -223.95, -159)"/>
  <path id="ID0.17456179251894355" fill="#000000" stroke="#000000" stroke-width="2" stroke-linecap="round" d="M 240.250 187.200 C 240.561 189.646 242.567 191.239 244 192.850 C 245.141 194.132 246.290 196.245 248 196.100 C 250.411 195.895 254.092 193.244 254 192 C 253.918 190.889 249.376 192.591 247.650 191.350 C 245.366 189.708 245.564 185.473 243.150 184.200 C 241.914 183.548 240.209 186.066 240.350 187.500 Z " transform="matrix(1, 0, 0, 1, -223.95, -159)"/>
  <path id="ID0.5871924390085042" fill="#000000" stroke="#000000" stroke-width="2" stroke-linecap="round" d="M 234.750 184.700 C 233.381 184.312 231.969 185.688 230.850 186.600 C 229.308 187.855 227.277 189.171 227.200 191.100 C 227.107 192.953 228.928 194.607 230.550 195.450 C 231.629 196.101 233.930 195.930 234.250 195 C 234.584 194.022 231.274 193.066 231.750 191.800 C 232.462 189.906 236.010 190.224 236.750 188.350 C 237.254 187.076 236.082 185.080 234.750 184.700 Z " transform="matrix(0.9230769276618958, 0, 0, 0.9489051103591919, -205.85, -149.75)"/>
  <path id="ID0.08363277604803443" fill="#000000" stroke="#000000" stroke-width="2" stroke-linecap="round" d="M 243.500 172.600 C 243.620 171.859 244.995 176.712 246.750 177.700 C 249.226 179.093 252.684 177.968 255.350 179.100 C 256.053 179.403 256.323 181.001 255.650 181.200 C 252.583 182.069 248.680 183.490 246.250 181.700 C 243.706 179.819 243.380 173.342 243.500 172.600 Z " transform="matrix(1, 0, 0, 1, -223.95, -159)"/>
  <path id="ID0.4646948669105768" fill="#000000" stroke="#000000" stroke-width="2" stroke-linecap="round" d="M 241.300 172.900 C 242.903 173.753 243.189 177.672 242.800 180.100 C 242.364 182.407 240.999 184.838 239 186.100 C 237.728 186.901 234.781 186.769 234.350 185.250 C 233.704 182.459 235.321 179.437 236.700 176.900 C 237.669 175.117 239.956 172.184 241.300 172.900 Z " transform="matrix(0.9898496866226196, 0, 0, 1.1396647691726685, -220.85, -184.25)"/>
</svg>