<svg version="1.1" width="32" height="42" xmlns="http://www.w3.org/2000/svg" xmlns:xlink="http://www.w3.org/1999/xlink">
  <!-- Exported by Scratch - http://scratch.mit.edu/ -->
  <path id="ID0.3051797547377646" fill="#000000" stroke="#000000" stroke-width="2" d="M 243.075 159.100 C 244.710 159.100 246.191 159.442 247.263 159.994 C 248.336 160.546 249 161.309 249 162.150 C 249 162.991 248.336 163.754 247.263 164.306 C 246.191 164.858 244.710 165.200 243.075 165.200 C 241.440 165.200 239.959 164.858 238.887 164.306 C 237.814 163.754 237.150 162.991 237.150 162.150 C 237.150 161.309 237.814 160.546 238.887 159.994 C 239.959 159.442 241.440 159.100 243.075 159.100 Z " transform="matrix(0.9403255581855774, 0, 0, 1.8925379514694214, -210.45, -298.25)"/>
  <path id="ID0.7967131421901286" fill="#000000" stroke="#000000" stroke-width="2" stroke-linecap="round" d="M 239.400 171.200 C 239.103 171.077 232.528 173.462 230.100 175.950 C 228.640 177.449 228.258 180.140 228.600 182.300 C 228.803 183.139 230.740 183.258 231.300 182.550 C 232.473 181.060 231.686 178.733 232.750 177.300 C 234.488 174.806 239.697 171.323 239.400 171.200 Z " transform="matrix(0.9404871463775635, 0, 0, 0.9996042251586914, -210.75, -156)"/>
  <path id="ID0.8002357394434512" fill="none" stroke="#000000" stroke-width="2" stroke-linecap="round" d="M 240.650 187.100 L 240.950 187.400 C 240.707 187.154 242.526 189.027 242.500 189 Z " transform="matrix(1, 0, 0, 1, -225, -156)"/>
  <path id="ID0.17456179251894355" fill="#000000" stroke="#000000" stroke-width="2" stroke-linecap="round" d="M 240.250 187.200 C 240.561 189.646 242.548 191.256 244 192.850 C 245.141 194.107 246.351 196.329 248.150 196.250 C 250.943 195.950 253.572 193.971 255.500 191.900 C 256.122 191.233 254.742 189.850 253.800 189.750 C 251.698 189.540 249.544 192.354 247.650 191.350 C 245.164 190.033 245.564 185.473 243.150 184.200 C 241.914 183.548 240.209 186.066 240.350 187.500 Z " transform="matrix(1, 0, 0, 1, -225, -156)"/>
  <path id="ID0.5871924390085042" fill="#000000" stroke="#000000" stroke-width="2" stroke-linecap="round" d="M 234.750 184.700 C 233.168 184.667 232.409 187.343 230.850 188.100 C 229.386 188.923 227.427 188.405 225.950 189.300 C 225.264 189.718 225.111 190.932 225.400 191.650 C 226.205 193.645 227.182 195.823 228.950 197.050 C 230.089 197.840 231.837 197.561 233.150 197.050 C 233.689 196.792 233.686 195.737 233.400 195.200 C 232.752 193.984 229.932 193.440 230.550 192.200 C 231.637 190.027 235.516 190.515 236.750 188.350 C 237.434 187.146 236.030 184.726 234.750 184.700 Z " transform="matrix(0.9230769276618958, 0, 0, 0.9489051103591919, -206.85, -146.75)"/>
  <path id="ID0.08363277604803443" fill="#000000" stroke="#000000" stroke-width="2" stroke-linecap="round" d="M 243.500 172.600 C 243.812 172.220 246.360 175.927 248.150 177.250 C 249.823 178.583 252.301 178.833 253.800 180.500 C 254.312 181.070 253.328 182.467 252.500 182.400 C 250.153 182.202 247.567 181.333 246 179.600 C 244.295 177.771 243.188 172.980 243.500 172.600 Z " transform="matrix(1, 0, 0, 1, -225, -156)"/>
  <path id="ID0.4646948669105768" fill="#000000" stroke="#000000" stroke-width="2" stroke-linecap="round" d="M 241.300 172.900 C 243.107 173.300 243.189 177.672 242.800 180.100 C 242.364 182.407 240.999 184.838 239 186.100 C 237.728 186.901 235.059 186.655 234.350 185.250 C 233.319 183.201 233.928 180.489 235 178.550 C 236.407 176.083 239.267 172.452 241.300 172.900 Z " transform="matrix(0.9898496866226196, 0, 0, 1.1396647691726685, -221.85, -181.25)"/>
</svg>