<svg version="1.1" width="34" height="41" xmlns="http://www.w3.org/2000/svg" xmlns:xlink="http://www.w3.org/1999/xlink">
  <!-- Exported by Scratch - http://scratch.mit.edu/ -->
  <path id="ID0.3051797547377646" fill="#000000" stroke="#000000" stroke-width="2" d="M 243.075 159.100 C 244.710 159.100 246.191 159.442 247.263 159.994 C 248.336 160.546 249 161.309 249 162.150 C 249 162.991 248.336 163.754 247.263 164.306 C 246.191 164.858 244.710 165.200 243.075 165.200 C 241.440 165.200 239.959 164.858 238.887 164.306 C 237.814 163.754 237.150 162.991 237.150 162.150 C 237.150 161.309 237.814 160.546 238.887 159.994 C 239.959 159.442 241.440 159.100 243.075 159.100 Z " transform="matrix(0.8624082803726196, 0, 0, 1.7357184886932373, -190.1, -274.05)"/>
  <path id="ID0.7967131421901286" fill="#000000" stroke="#000000" stroke-width="2" stroke-linecap="round" d="M 239.400 171.200 C 239.413 170.557 234.328 170.387 232.450 171.750 C 229.728 173.726 227.983 176.902 226.750 180 C 226.432 180.800 227.820 182.564 228.500 182 C 230.476 180.364 230.696 177.113 232.600 175.250 C 234.439 173.405 239.387 171.843 239.400 171.200 Z " transform="matrix(0.9404871463775635, 0, 0, 0.9996042251586914, -209.85, -158)"/>
  <path id="ID0.8002357394434512" fill="none" stroke="#000000" stroke-width="2" stroke-linecap="round" d="M 240.650 187.100 L 240.950 187.400 C 240.707 187.154 242.526 189.027 242.500 189 Z " transform="matrix(1, 0, 0, 1, -224, -158)"/>
  <path id="ID0.17456179251894355" fill="#000000" stroke="#000000" stroke-width="2" stroke-linecap="round" d="M 241 187.400 C 240.963 188.482 242.715 189.187 242.650 190.250 C 242.523 192.304 239.074 194.843 240.650 196.100 C 243.354 198.255 247.661 197.497 251.150 197.100 C 252.107 196.990 253.164 195.312 252.750 194.500 C 252.275 193.567 250.497 193.724 249.350 193.400 C 248.435 193.159 246.839 193.749 246.650 192.900 C 246.225 191.024 248.636 189.152 248 187.400 C 247.319 185.526 245.227 183.747 243.250 183.750 C 241.861 183.753 241.193 185.989 241 187.400 Z " transform="matrix(1, 0, 0, 1, -224, -158)"/>
  <path id="ID0.5871924390085042" fill="#000000" stroke="#000000" stroke-width="2" stroke-linecap="round" d="M 234.750 184.700 C 233.041 184.481 231.998 186.902 230.350 187.350 C 228.710 187.902 226.489 186.446 225.200 187.600 C 223.987 188.687 224.429 190.907 224.800 192.500 C 225.106 193.795 225.777 195.080 226.800 195.750 C 227.979 196.430 229.593 196.537 230.750 196.150 C 231.558 195.876 232.421 194.892 232.250 194.050 C 231.991 192.778 228.979 192.035 229.800 191.050 C 231.229 189.185 235.196 190.323 236.750 188.350 C 237.607 187.261 236.120 184.876 234.750 184.700 Z " transform="matrix(0.9230769276618958, 0, 0, 0.9489051103591919, -205.95, -148.75)"/>
  <path id="ID0.08363277604803443" fill="#000000" stroke="#000000" stroke-width="2" stroke-linecap="round" d="M 243.500 172.600 C 244.163 172.345 247.324 176.668 249.650 178.100 C 251.558 179.378 254.316 179.069 256 180.600 C 256.645 181.187 255.568 182.988 254.750 182.900 C 251.610 182.592 248.208 181.671 246 179.600 C 244.196 177.906 242.837 172.855 243.500 172.600 Z " transform="matrix(1, 0, 0, 1, -224, -158)"/>
  <path id="ID0.4646948669105768" fill="#000000" stroke="#000000" stroke-width="2" stroke-linecap="round" d="M 241.300 172.900 C 243.190 173.218 243.189 177.672 242.800 180.100 C 242.364 182.407 240.999 184.838 239 186.100 C 237.728 186.901 235.181 186.585 234.350 185.250 C 233.196 183.393 233.099 180.635 234.100 178.750 C 235.668 176.069 238.979 172.512 241.300 172.900 Z " transform="matrix(0.9898496866226196, 0, 0, 1.1396647691726685, -220.95, -183.25)"/>
</svg>