<svg version="1.1" width="24" height="41" xmlns="http://www.w3.org/2000/svg" xmlns:xlink="http://www.w3.org/1999/xlink">
  <!-- Exported by Scratch - http://scratch.mit.edu/ -->
  <path id="ID0.3051797547377646" fill="#000000" stroke="#000000" stroke-width="2" d="M 243.075 159.100 C 244.710 159.100 246.191 159.442 247.263 159.994 C 248.336 160.546 249 161.309 249 162.150 C 249 162.991 248.336 163.754 247.263 164.306 C 246.191 164.858 244.710 165.200 243.075 165.200 C 241.440 165.200 239.959 164.858 238.887 164.306 C 237.814 163.754 237.150 162.991 237.150 162.150 C 237.150 161.309 237.814 160.546 238.887 159.994 C 239.959 159.442 241.440 159.100 243.075 159.100 Z " transform="matrix(0.8318264484405518, 0, 0, 1.6741682291030884, -187.95, -264.35)"/>
  <path id="ID0.8002357394434512" fill="none" stroke="#000000" stroke-width="2" stroke-linecap="round" d="M 240.650 187.100 L 240.950 187.400 C 240.707 187.154 242.526 189.027 242.500 189 Z " transform="matrix(1, 0, 0, 1, -231, -159)"/>
  <path id="ID0.17456179251894355" fill="#000000" stroke="#000000" stroke-width="2" stroke-linecap="round" d="M 241 187.400 C 240.909 188.233 242.686 188.594 242.350 189.350 C 241.699 191.339 239.468 192.413 238.500 194.350 C 238.083 195.186 237.696 196.868 238.700 197.150 C 242.757 197.968 247.076 197.864 251.150 197.100 C 252.169 196.909 251.529 195.151 250.850 194.750 C 249.064 193.698 246.058 195.050 245 193.350 C 244.007 191.754 247.027 189.897 246.700 188.150 C 246.366 186.270 244.813 183.903 243.250 183.750 C 242.006 183.630 241.161 185.984 241 187.400 Z " transform="matrix(0.9946492910385132, 0.10330898314714432, -0.10330898314714432, 0.9946492910385132, -214.35, -183.15)"/>
  <path id="ID0.5871924390085042" fill="#000000" stroke="#000000" stroke-width="2" stroke-linecap="round" d="M 234.750 184.700 C 233.732 184.277 232.864 185.749 231.850 185.900 C 230.923 186.076 229.982 185.301 229.100 185.650 C 228.501 185.890 228.149 186.702 228.150 187.350 C 228.150 189.146 228.310 191.102 229 192.850 C 229.443 193.856 230.263 195.045 231.400 195.250 C 232.456 195.439 233.843 194.516 234.150 193.550 C 234.593 192.152 232.422 190.248 233.450 189.200 C 234.652 187.971 238.261 189.872 238.600 188.800 C 238.960 187.652 236.476 185.424 234.750 184.700 Z " transform="matrix(0.8757076859474182, -0.2919025421142578, 0.3000701367855072, 0.900210440158844, -253.55, -70.2)"/>
  <path id="ID0.08363277604803443" fill="#000000" stroke="#000000" stroke-width="2" stroke-linecap="round" d="M 243.500 172.600 C 243.499 171.641 246.016 172.391 246.600 173.250 C 247.504 174.763 246.109 177.151 247.200 178.500 C 248.783 180.455 251.970 180.539 253.700 182.350 C 254.286 182.964 254.027 185.033 253.200 184.850 C 250.590 184.268 248.066 182.888 246.500 180.850 C 244.633 178.553 243.510 175.321 243.500 172.600 Z " transform="matrix(0.87930828332901, 0.4762530028820038, -0.4762530028820038, 0.87930828332901, -119.15, -255.75)"/>
  <path id="ID0.4646948669105768" fill="#000000" stroke="#000000" stroke-width="2" stroke-linecap="round" d="M 241.300 172.900 C 243.190 173.218 243.189 177.672 242.800 180.100 C 242.364 182.407 240.999 184.838 239 186.100 C 237.728 186.901 235.181 186.585 234.350 185.250 C 233.196 183.393 233.099 180.635 234.100 178.750 C 235.668 176.069 238.979 172.512 241.300 172.900 Z " transform="matrix(0.9898496866226196, 0, 0, 1.1396647691726685, -227.85, -184.25)"/>
  <path id="ID0.8200891027227044" fill="none" stroke="#000000" stroke-width="2" stroke-linecap="round" d="M 239.500 171 L 235.700 174.250 L 245 181.250 " transform="matrix(1, 0, 0, 1, -230, -159.25)"/>
</svg>