<svg version="1.1" width="30" height="42" xmlns="http://www.w3.org/2000/svg" xmlns:xlink="http://www.w3.org/1999/xlink">
  <!-- Exported by Scratch - http://scratch.mit.edu/ -->
  <path id="ID0.3051797547377646" fill="#000000" stroke="#000000" stroke-width="2" d="M 243.075 159.100 C 244.710 159.100 246.191 159.442 247.263 159.994 C 248.336 160.546 249 161.309 249 162.150 C 249 162.991 248.336 163.754 247.263 164.306 C 246.191 164.858 244.710 165.200 243.075 165.200 C 241.440 165.200 239.959 164.858 238.887 164.306 C 237.814 163.754 237.150 162.991 237.150 162.150 C 237.150 161.309 237.814 160.546 238.887 159.994 C 239.959 159.442 241.440 159.100 243.075 159.100 Z " transform="matrix(0.8930795788764954, 0.12044823169708252, -0.2424190640449524, 1.797448754310608, -158.65, -312.4)"/>
  <path id="ID0.7967131421901286" fill="#666666" stroke="#000000" stroke-width="2" stroke-linecap="round" d="M 239.400 171.200 C 239.172 170.805 234.246 170.899 232.750 172.650 C 230.994 174.711 231.288 177.971 231.250 180.750 C 231.241 181.445 232.602 181.476 232.850 181 C 233.801 179.176 233.137 176.708 234.350 175 C 235.459 173.234 239.628 171.595 239.400 171.200 Z " transform="matrix(0.9320486187934875, 0.12570391595363617, -0.13360540568828583, 0.9906352758407593, -183.95, -185.6)"/>
  <path id="ID0.8002357394434512" fill="none" stroke="#000000" stroke-width="2" stroke-linecap="round" d="M 240.650 187.100 L 240.950 187.400 C 240.707 187.154 242.526 189.027 242.500 189 Z " transform="matrix(0.9910274744033813, 0.133658304810524, -0.133658304810524, 0.9910274744033813, -198.1, -187.5)"/>
  <path id="ID0.17456179251894355" fill="#000000" stroke="#000000" stroke-width="2" stroke-linecap="round" d="M 240.400 187.200 C 240.274 187.947 241.806 188.227 241.900 189 C 241.989 189.751 240.761 190.224 240.650 191 C 240.565 191.718 240.688 193.071 241.500 193.200 C 244.595 193.585 247.818 193.144 250.900 192.350 C 251.671 192.151 252.056 191.033 251.800 190.350 C 251.481 189.496 250.544 188.822 249.650 188.600 C 248.490 188.314 246.980 189.515 246.150 188.700 C 245.304 187.863 246.923 186.050 246.300 185 C 245.601 184.015 244.006 183.300 242.900 183.700 C 241.553 184.186 240.638 185.800 240.400 187.200 Z " transform="matrix(0.9910274744033813, 0.133658304810524, -0.133658304810524, 0.9910274744033813, -198.1, -187.5)"/>
  <path id="ID0.5871924390085042" fill="#000000" stroke="#000000" stroke-width="2" stroke-linecap="round" d="M 234.750 184.700 C 233.651 184.790 233.642 187.638 232.750 188.900 C 232.139 189.952 231.107 190.671 230.300 191.550 C 229.554 192.363 228.730 193.126 228.300 194.200 C 227.936 195.127 227.452 196.918 228.450 197.200 C 232.214 198.257 236.435 198.386 240.200 197.350 C 241.249 197.060 240.576 194.753 239.650 194.300 C 237.796 193.397 234.296 195.332 233.700 193.950 C 233.040 192.480 237.050 190.766 237.350 188.650 C 237.468 187.092 235.828 184.616 234.750 184.700 Z " transform="matrix(0.9147946238517761, 0.12337690591812134, -0.12682905793190002, 0.9403910636901855, -181.35, -175.9)"/>
  <path id="ID0.08363277604803443" fill="#000000" stroke="#000000" stroke-width="2" stroke-linecap="round" d="M 243.500 172.600 C 243.513 171.927 244.537 172.443 244.650 172.850 C 245.346 174.514 244.397 176.819 245.650 178.100 C 247.271 179.730 250.506 178.952 252.150 180.500 C 252.796 181.112 251.490 182.601 250.650 182.600 C 248.419 182.679 245.518 182.454 244.300 180.700 C 242.759 178.471 243.447 175.290 243.500 172.600 Z " transform="matrix(0.9910274744033813, 0.133658304810524, -0.133658304810524, 0.9910274744033813, -198.1, -187.5)"/>
  <path id="ID0.4646948669105768" fill="#000000" stroke="#000000" stroke-width="2" stroke-linecap="round" d="M 241.300 172.900 C 243.190 173.218 243.189 177.672 242.800 180.100 C 242.364 182.407 240.999 184.838 239 186.100 C 237.728 186.901 235.181 186.585 234.350 185.250 C 233.196 183.393 233.099 180.635 234.100 178.750 C 235.668 176.069 238.979 172.512 241.300 172.900 Z " transform="matrix(0.9809682369232178, 0.13230164349079132, -0.15232567489147186, 1.129439115524292, -191.6, -212.1)"/>
</svg>